<?xml version="1.0" encoding="utf-8"?>
<!-- Generator: Adobe Illustrator 26.1.0, SVG Export Plug-In . SVG Version: 6.00 Build 0)  -->
<svg version="1.1" id="Layer_1" xmlns="http://www.w3.org/2000/svg" xmlns:xlink="http://www.w3.org/1999/xlink" x="0px" y="0px"
	 viewBox="0 0 42.4 72.4" style="enable-background:new 0 0 42.4 72.4;" xml:space="preserve">
<style type="text/css">
	.st0{fill:#FFFFFF;}
</style>
<g id="a">
	<path class="st0" d="M34.8,0.5c-0.8,0-1.4,0.6-1.4,1.4s0.6,1.4,1.4,1.4c0.8,0,1.4-0.6,1.4-1.4S35.6,0.5,34.8,0.5z M40.5,0.5
		c-0.8,0-1.4,0.6-1.4,1.4s0.6,1.4,1.4,1.4s1.4-0.6,1.4-1.4S41.3,0.5,40.5,0.5z M13.1,1.9c-0.7,0.1-1.2,0.7-1.2,1.4V9
		c0,0.8,0.6,1.4,1.4,1.4h2.9v1.4h-1.6c-0.1,0-0.2,0-0.4,0.1c-2.3,0.9-4.5,2-6.7,3.2c-1.7,0.9-3.3,2.1-4.7,3.4
		c-1.3,1.1-2.2,2.6-2.4,4.3l0,0c0,0.1,0,0.2,0,0.4v44.3c0,2.4,1.9,4.3,4.3,4.3h25.8c2.4,0,4.3-1.9,4.3-4.3V23.6c0-0.1,0-0.1,0-0.2
		v-0.2c0-0.1,0-0.1,0-0.2c-0.3-1.7-1.1-3.2-2.4-4.2c-1.4-1.3-3-2.4-4.7-3.4c-2.1-1.2-4.3-2.3-6.6-3.3C20.9,12,20.7,12,20.6,12h-1.4
		v-1.5h2.9c0.8,0,1.4-0.6,1.4-1.4V3.4c0-0.8-0.6-1.4-1.4-1.4L13.1,1.9L13.1,1.9z M14.8,4.8h5.7v2.9H18c-0.1,0-0.3-0.1-0.4,0h-0.1
		h-2.6L14.8,4.8z M26.2,4.8c-0.8,0-1.4,0.6-1.4,1.4s0.6,1.4,1.4,1.4c0.8,0,1.4-0.6,1.4-1.4C27.7,5.4,27,4.8,26.2,4.8L26.2,4.8z
		 M31.9,4.8c-0.8,0-1.4,0.6-1.4,1.4s0.6,1.4,1.4,1.4c0.8,0,1.4-0.6,1.4-1.4C33.4,5.4,32.7,4.8,31.9,4.8L31.9,4.8z M37.7,4.8
		c-0.8,0-1.4,0.6-1.4,1.4s0.6,1.4,1.4,1.4s1.4-0.6,1.4-1.4S38.4,4.8,37.7,4.8L37.7,4.8z M34.8,9.1c-0.8,0-1.4,0.6-1.4,1.4
		s0.6,1.4,1.4,1.4c0.8,0,1.4-0.6,1.4-1.4S35.6,9.1,34.8,9.1z M40.5,9.1c-0.8,0-1.4,0.6-1.4,1.4s0.6,1.4,1.4,1.4s1.4-0.6,1.4-1.4
		S41.3,9.1,40.5,9.1L40.5,9.1z M15.1,14.8h5c2.1,0.9,4.1,1.9,6.1,3c1.5,0.8,2.9,1.8,4.2,3c0.5,0.5,0.5,0.8,0.7,1.2H4.2
		c0.3-0.4,0.3-0.8,0.8-1.3c1.3-1.1,2.7-2.1,4.2-2.9C11,16.6,13,15.6,15.1,14.8z M3.4,24.8H32v42.9c0,0.8-0.6,1.4-1.4,1.4l0,0H4.8
		c-0.8,0-1.4-0.6-1.4-1.4l0,0V24.8z M17.7,37.6c-4.7,0-8.6,3.8-8.6,8.6s3.8,8.6,8.6,8.6s8.6-3.8,8.6-8.6l0,0
		C26.2,41.5,22.4,37.7,17.7,37.6z M17.7,40.5c3.2,0,5.7,2.6,5.7,5.7s-2.6,5.7-5.7,5.7S12,49.3,12,46.2
		C11.9,43.1,14.5,40.5,17.7,40.5C17.6,40.5,17.6,40.5,17.7,40.5L17.7,40.5z"/>
</g>
</svg>
