<?xml version="1.0" encoding="utf-8"?>
<!-- Generator: Adobe Illustrator 26.1.0, SVG Export Plug-In . SVG Version: 6.00 Build 0)  -->
<svg version="1.1" id="Layer_1" xmlns="http://www.w3.org/2000/svg" xmlns:xlink="http://www.w3.org/1999/xlink" x="0px" y="0px"
	 viewBox="0 0 65.5 76.1" style="enable-background:new 0 0 65.5 76.1;" xml:space="preserve">
<style type="text/css">
	.st0{fill:#FFFFFF;}
</style>
<g>
	<g id="a">
		<path class="st0" d="M37.4,1.1C24,1.1,13,11.5,13,21.8V22c0,0.6-0.4,1.2-1.1,1.2h-0.1h-1.1C9,23.2,7.4,24.3,7,26l0,0
			c-0.7,3-2.3,9.4-3.7,15.3c-0.7,3-1.4,5.7-1.9,7.8c-0.2,1.1-0.4,2-0.5,2.7c-0.1,0.5-0.2,1-0.2,1.5c0,1.7,0.6,3.3,1.6,4.7
			c1.1,1.4,2.8,2.2,4.6,2.2c0.6,0,1.2,0.4,1.2,1.1v0.1v0.2c0,7.4,6.8,13.3,14.3,13.3c6.8,0,10.7-3,13.8-7.3c1.5-1.9,2.8-3.9,3.9-5.9
			c1.3-2.3,2.9-4.5,4.6-6.5c5.4-6.5,12.2-11.7,15-21h0.1c2.7,0,4.9-2.2,4.9-4.9c0-2.3-1.5-4.2-3.7-4.8c-0.1-7.6-2.8-13.6-7.2-17.5
			C49.6,3.1,43.7,1.1,37.4,1.1z M37.4,3.5c5.4-0.1,10.7,1.8,14.8,5.4c3.7,3.5,6.2,8.6,6.3,15.5h-4.9c-0.4-8.3-7.1-14.8-15.4-14.8
			c-3.7-0.1-7.4,1.1-10.4,3.3c-3.5,2.7-5.8,6.7-6.4,11.1c-0.4,2.2-1.4,3.1-2.5,4.4c-1.4,1.6-2.2,3.7-2.2,5.8
			c0.1,1.1,0.6,2.1,1.5,2.7c0.7,0.5,1.5,0.9,2.3,1.2c0.7,0.4,1.4,0.7,1.8,1c0.5,0.2,0.5,0.6,0.5,1.2c0,0.6-0.3,1.2-0.7,1.6
			c-0.5,0.6-1.2,1.2-2,2c-1.4,1.6-3.4,3.5-3.4,6.5c0,4.1,3.3,7.4,7.4,7.4c6.8,0,13.6-5.7,13.6-16c0-4.1-1.7-6.7-3.3-9
			s-2.8-4.1-2.8-7c0-3.9,3.9-7.4,8-7.4c3.5,0,6.5,2.8,6.8,6.3c-2.2,0.6-3.7,2.6-3.7,4.8c0,2.7,2.2,4.9,4.9,4.9h9.6
			c-2.7,7.9-9,12.7-14.4,19.4c-1.7,2.2-3.3,4.5-4.7,6.9c-1.2,2-2.4,3.9-3.8,5.8c-3,4.1-5.8,6.3-11.8,6.3c-6.2,0-11.8-4.9-11.8-10.9
			v-0.4c0-2-1.7-3.7-3.7-3.7c-1,0-2-0.5-2.6-1.4c-0.7-0.9-1.1-2-1.1-3.1c0,0.2,0-0.4,0.1-1s0.4-1.6,0.5-2.6c0.5-2.1,1.1-4.9,1.7-7.8
			C7,36.1,8.4,29.7,9.3,26.7c0.2-0.6,0.7-1,1.4-1h1.2c2,0,3.7-1.7,3.7-3.7v-0.2C15.5,13.3,25.3,3.5,37.4,3.5z M38.3,12.2
			c6.9,0,12.5,5.5,12.8,12.3h-2.5c-0.3-4.8-4.3-8.6-9.1-8.6c-5.4,0-10.5,4.3-10.5,9.9V27h0.2c0.4,2.6,1.5,5.1,3.1,7.3
			c1.5,2.2,2.8,4.2,2.8,7.5c0,9.4-5.6,13.6-11.1,13.6c-2.7,0-4.9-2.2-4.9-4.9c0-2,1.1-3.1,2.7-4.4c0.8-0.7,1.5-1.4,2.2-2.2
			c0.8-0.9,1.2-2,1.2-3.2c0-1.1-0.5-2.2-1.4-3c-0.7-0.6-1.6-1.1-2.5-1.5c-0.6-0.3-1.3-0.6-1.9-1c-0.4-0.2-0.5-0.4-0.5-0.7
			c0-2.2,0.7-3,1.7-4.2c1.5-1.5,2.5-3.5,3-5.5c0.5-3.8,2.4-7.3,5.4-9.6C31.9,13.1,35.1,12.1,38.3,12.2L38.3,12.2z M47.5,27h12.3
			c1.4,0,2.5,1.1,2.5,2.5S61.2,32,59.8,32H47.5c-1.4,0-2.5-1.1-2.5-2.5C45.1,28.1,46.2,27,47.5,27L47.5,27z M22.9,61.5
			c-2,0-3.7,1.7-3.7,3.7c0,2,1.7,3.7,3.7,3.7s3.7-1.7,3.7-3.7l0,0C26.5,63.2,24.9,61.6,22.9,61.5z M22.9,64c0.7,0,1.2,0.6,1.2,1.2
			s-0.6,1.2-1.2,1.2c-0.7,0-1.2-0.6-1.2-1.2s0.5-1.2,1.1-1.2C22.8,64,22.8,64,22.9,64L22.9,64z"/>
	</g>
</g>
</svg>
