<?xml version="1.0" encoding="utf-8"?>
<!-- Generator: Adobe Illustrator 26.1.0, SVG Export Plug-In . SVG Version: 6.00 Build 0)  -->
<svg version="1.1" id="Layer_1" xmlns="http://www.w3.org/2000/svg" xmlns:xlink="http://www.w3.org/1999/xlink" x="0px" y="0px"
	 viewBox="0 0 71.9 71.9" style="enable-background:new 0 0 71.9 71.9;" xml:space="preserve">
<style type="text/css">
	.st0{clip-path:url(#SVGID_00000159471255410740559590000009975794626140332942_);}
</style>
<g>
	<g>
		<defs>
			<rect id="SVGID_1_" y="0" width="100" height="100"/>
		</defs>
		<clipPath id="SVGID_00000029726896480843579420000016548336172263596726_">
			<use xlink:href="#SVGID_1_"  style="overflow:visible;"/>
		</clipPath>
		<g id="a" style="clip-path:url(#SVGID_00000029726896480843579420000016548336172263596726_);">
			<path class="st1" fill="inherit" d="M48.4,7.9c-0.5-0.4-1.2-0.2-1.6,0.3l0,0l-1.9,2.9l-2.8-1.9c-0.5-0.4-1.2-0.2-1.6,0.3l0,0l-0.6,1L38,9.2
				c-0.5-0.4-1.2-0.2-1.6,0.3c-0.4,0.5-0.2,1.2,0.3,1.6l1.9,1.3L36,16.2c-0.4,0.5-0.2,1.2,0.3,1.6l0,0l2.8,1.9l-4.5,6.6l-2.8-1.9
				l1.9-2.8c0.4-0.5,0.2-1.2-0.3-1.6l0,0l-3.8-2.6c-0.5-0.4-1.2-0.2-1.6,0.3l0,0l-1.9,2.8l-1.9-1.3c-0.5-0.4-1.2-0.2-1.6,0.3l0,0
				l-1.9-1.3l1.9-2.8c0.4-0.5,0.2-1.2-0.3-1.6s-1.2-0.2-1.6,0.3L18.9,17l-1-0.7c-0.5-0.4-1.2-0.2-1.6,0.3l0,0l-2.6,3.8
				c-0.4,0.5-0.2,1.2,0.3,1.6l0,0l0.9,0.6L13,25.4c-0.4,0.5-0.2,1.2,0.3,1.6c0.5,0.4,1.2,0.2,1.6-0.3l1.9-2.9l1.9,1.3
				c-0.4,0.5-0.2,1.2,0.3,1.6l0,0l1.9,1.3l-4.5,6.6l-1.9-1.3c-0.5-0.4-1.2-0.2-1.6,0.3l0,0l-3.1,4.6c-0.1,0.1-0.2,0.2-0.2,0.3
				l-3,4.4c-0.1,0.1-0.2,0.2-0.2,0.3l-3.1,4.6c-0.4,0.5-0.2,1.2,0.3,1.6l0,0l1.9,1.3l-2.8,4.2c-0.1,0.1-0.1,0.2-0.2,0.3l-2.2,7.6
				c-0.2,0.6,0.2,1.2,0.8,1.4c0.4,0.1,0.8,0,1.1-0.2l6-5c0.1-0.1,0.2-0.1,0.2-0.2l2.8-4.2l1.9,1.3c0.5,0.4,1.2,0.2,1.6-0.3l0,0
				l9.6-14.2c0.4-0.5,0.2-1.2-0.3-1.6l0,0l-1.9-1.3l4.5-6.6l18,12.2c0,0,0.1,0,0.1,0.1h0.1l0,0l0,0h0.1H45l0,0l0,0h0.1l5.1,0.7
				c0.4,0.1,0.9-0.1,1.1-0.5l2.8,1.9c0.5,0.4,1.2,0.2,1.6-0.3s0.2-1.2-0.3-1.6l-2.8-1.9c0.2-0.4,0.3-0.8,0-1.2l-2.4-4.4l0,0
				c0,0,0-0.1-0.1-0.1c0,0,0-0.1-0.1-0.1l0,0l0,0l0,0c0,0,0-0.1-0.1-0.1c0,0-0.1,0-0.1-0.1l0,0h-0.1l-9.5-6.4l3.2-4.8l18,12.2
				c0.5,0.4,1.2,0.2,1.6-0.3l0,0l8.5-12.3c0.4-0.5,0.2-1.2-0.3-1.6l0,0L48.4,7.9z M48.1,10.5l1.9,1.3L34.6,34.5l-1.9-1.3
				C32.7,33.3,48.1,10.5,48.1,10.5z M51.9,13L69,24.5l-7,10.4L44.9,23.5L51.9,13z M41.8,11.7l1.9,1.3l-3.2,4.7l-1.9-1.3l2.5-3.6
				c0.1-0.1,0.2-0.2,0.2-0.3L41.8,11.7z M51.6,19.7c-0.5-0.3-1.2-0.2-1.6,0.3l-1.3,1.9c-0.4,0.5-0.2,1.2,0.3,1.6
				c0.5,0.4,1.2,0.2,1.6-0.3l1.3-1.9C52.2,20.8,52.1,20.1,51.6,19.7L51.6,19.7z M55.4,22.2c-0.5-0.3-1.2-0.2-1.6,0.3l-1.3,1.9
				c-0.4,0.5-0.2,1.2,0.3,1.6s1.2,0.2,1.6-0.3l1.3-1.9C56,23.3,55.9,22.6,55.4,22.2L55.4,22.2z M59.2,24.8c-0.5-0.3-1.2-0.2-1.6,0.3
				L56.3,27c-0.4,0.5-0.2,1.2,0.3,1.6c0.5,0.4,1.2,0.2,1.6-0.3l1.3-1.9C59.8,25.9,59.7,25.2,59.2,24.8L59.2,24.8z M63,27.4
				c-0.5-0.3-1.2-0.2-1.6,0.3l-1.3,1.9c-0.4,0.5-0.2,1.2,0.3,1.6c0.5,0.4,1.2,0.2,1.6-0.3l1.3-1.9C63.6,28.5,63.5,27.7,63,27.4
				L63,27.4z M29.3,19.9l1.9,1.3l-1.3,1.9L28,21.8L29.3,19.9z M23.9,21.8l9.5,6.4L30.8,32l-9.5-6.4L23.9,21.8z M39.1,32l8.5,5.8
				L45,41.6l-8.5-5.8L39.1,32z M49.2,39.7l1.3,2.2l-0.1,0.2c-0.1,0.1-0.2,0.2-0.2,0.3l-0.3,0.2l-2.5-0.3L49.2,39.7z M17.6,18.9
				l0.8,0.5c0.1,0.1,0.2,0.2,0.3,0.2l2.7,1.8l-1.3,1.9l-2.7-1.8c-0.1-0.1-0.2-0.2-0.3-0.2l-0.8-0.5L17.6,18.9z M22.9,29.4l1.9,1.3
				l-4.5,6.6L18.4,36L22.9,29.4z M14.3,36l7.6,5.1L20,43.9l-7.6-5L14.3,36z M11.1,40.8l7.6,5.1l-1.9,2.8l-7.6-5.1L11.1,40.8z
				 M7.9,45.5l7.6,5.1l-1.9,2.8L6,48.3L7.9,45.5z M7.6,52.2l1.9,1.3l-2.8,4.1l-3,2.5l1.1-3.8L7.6,52.2z"/>
		</g>
	</g>
</g>
</svg>
